<svg width="500" height="500" viewBox="0 0 500 500" fill="none" xmlns="http://www.w3.org/2000/svg">
<path d="M250 41.6667C135.125 41.6667 41.6665 135.125 41.6665 250C41.6665 364.875 135.125 458.333 250 458.333C364.875 458.333 458.333 364.875 458.333 250C458.333 135.125 364.875 41.6667 250 41.6667ZM333.333 177.083C350.583 177.083 364.583 191.083 364.583 208.333C364.583 225.583 350.583 239.583 333.333 239.583C316.083 239.583 302.083 225.583 302.083 208.333C302.083 191.083 316.083 177.083 333.333 177.083ZM166.667 177.083C183.917 177.083 197.917 191.083 197.917 208.333C197.917 225.583 183.917 239.583 166.667 239.583C149.417 239.583 135.417 225.583 135.417 208.333C135.417 191.083 149.417 177.083 166.667 177.083ZM336.521 361.042C286.375 325.208 213.646 325.208 163.479 361.042L139.271 327.125C171.458 304.146 209.75 292 250 292C290.25 292 328.542 304.146 360.729 327.125L336.521 361.042Z" fill="#163760"/>
</svg>
